<?xml version="1.0" encoding="UTF-8"?>
<svg xmlns="http://www.w3.org/2000/svg" version="1.1" width="400" height="400" viewBox="0 0 400 400"><rect x="0" y="0" width="400" height="400" fill="#ffffff"/><g transform="scale(9.756)"><g transform="translate(0,0)"><path fill-rule="evenodd" d="M9 0L9 1L10 1L10 0ZM14 0L14 1L13 1L13 3L10 3L10 4L9 4L9 3L8 3L8 5L9 5L9 6L8 6L8 7L9 7L9 6L10 6L10 8L9 8L9 9L8 9L8 8L5 8L5 9L4 9L4 10L5 10L5 9L7 9L7 10L6 10L6 11L5 11L5 13L4 13L4 12L2 12L2 11L3 11L3 10L2 10L2 11L1 11L1 10L0 10L0 12L1 12L1 13L0 13L0 14L2 14L2 15L1 15L1 16L0 16L0 17L2 17L2 16L4 16L4 18L2 18L2 19L0 19L0 20L1 20L1 21L0 21L0 23L1 23L1 21L2 21L2 24L0 24L0 27L2 27L2 28L1 28L1 29L0 29L0 33L1 33L1 31L2 31L2 32L3 32L3 33L4 33L4 32L5 32L5 33L7 33L7 32L6 32L6 31L8 31L8 32L9 32L9 33L8 33L8 36L11 36L11 37L12 37L12 38L13 38L13 37L14 37L14 35L16 35L16 36L15 36L15 37L17 37L17 34L18 34L18 37L19 37L19 38L17 38L17 39L19 39L19 40L21 40L21 39L23 39L23 38L24 38L24 37L25 37L25 38L26 38L26 39L27 39L27 40L26 40L26 41L32 41L32 39L34 39L34 40L35 40L35 41L36 41L36 39L37 39L37 40L38 40L38 41L39 41L39 39L37 39L37 38L36 38L36 39L35 39L35 38L33 38L33 37L38 37L38 36L37 36L37 33L41 33L41 32L40 32L40 31L41 31L41 29L40 29L40 31L39 31L39 32L37 32L37 31L38 31L38 30L37 30L37 29L39 29L39 28L41 28L41 27L39 27L39 26L41 26L41 25L40 25L40 24L39 24L39 26L37 26L37 25L35 25L35 24L37 24L37 23L38 23L38 22L40 22L40 20L41 20L41 17L39 17L39 15L38 15L38 14L37 14L37 13L36 13L36 14L35 14L35 11L36 11L36 12L38 12L38 11L37 11L37 10L39 10L39 9L38 9L38 8L36 8L36 10L35 10L35 11L34 11L34 10L33 10L33 6L32 6L32 7L31 7L31 5L33 5L33 3L32 3L32 2L33 2L33 0L32 0L32 2L31 2L31 1L30 1L30 0L29 0L29 1L28 1L28 3L25 3L25 2L27 2L27 1L25 1L25 0L24 0L24 1L25 1L25 2L24 2L24 3L25 3L25 4L28 4L28 7L27 7L27 5L26 5L26 7L27 7L27 8L25 8L25 5L24 5L24 4L23 4L23 5L22 5L22 3L23 3L23 2L22 2L22 1L23 1L23 0L20 0L20 3L21 3L21 5L22 5L22 8L23 8L23 5L24 5L24 9L23 9L23 10L21 10L21 9L19 9L19 8L20 8L20 7L21 7L21 6L20 6L20 7L19 7L19 5L20 5L20 4L19 4L19 1L18 1L18 0L17 0L17 1L18 1L18 3L17 3L17 4L19 4L19 5L16 5L16 4L15 4L15 5L14 5L14 4L13 4L13 3L14 3L14 2L15 2L15 3L16 3L16 2L15 2L15 0ZM29 1L29 3L30 3L30 4L29 4L29 7L28 7L28 8L31 8L31 9L29 9L29 10L28 10L28 11L27 11L27 13L28 13L28 15L29 15L29 16L30 16L30 15L32 15L32 14L30 14L30 13L31 13L31 11L32 11L32 10L31 10L31 9L32 9L32 8L31 8L31 7L30 7L30 4L32 4L32 3L31 3L31 2L30 2L30 1ZM10 4L10 6L11 6L11 7L12 7L12 8L10 8L10 9L11 9L11 10L9 10L9 12L8 12L8 10L7 10L7 11L6 11L6 12L8 12L8 13L5 13L5 14L4 14L4 13L2 13L2 14L4 14L4 16L5 16L5 17L6 17L6 18L9 18L9 19L5 19L5 18L4 18L4 19L5 19L5 20L3 20L3 23L5 23L5 24L2 24L2 25L4 25L4 26L7 26L7 27L6 27L6 28L8 28L8 27L9 27L9 26L10 26L10 27L12 27L12 28L13 28L13 29L10 29L10 31L9 31L9 32L10 32L10 33L9 33L9 34L10 34L10 33L11 33L11 31L12 31L12 32L14 32L14 34L15 34L15 33L16 33L16 34L17 34L17 33L16 33L16 32L15 32L15 31L16 31L16 29L17 29L17 30L19 30L19 29L21 29L21 30L20 30L20 31L17 31L17 32L18 32L18 33L19 33L19 32L20 32L20 34L19 34L19 37L20 37L20 36L21 36L21 38L23 38L23 37L24 37L24 34L25 34L25 37L26 37L26 38L27 38L27 36L28 36L28 38L29 38L29 40L31 40L31 38L30 38L30 37L31 37L31 36L32 36L32 35L31 35L31 34L32 34L32 31L31 31L31 33L29 33L29 36L28 36L28 35L26 35L26 34L27 34L27 29L28 29L28 32L30 32L30 31L29 31L29 30L30 30L30 29L29 29L29 28L31 28L31 27L32 27L32 26L34 26L34 28L32 28L32 29L33 29L33 31L34 31L34 32L35 32L35 31L34 31L34 29L37 29L37 28L38 28L38 27L37 27L37 26L36 26L36 28L35 28L35 26L34 26L34 24L35 24L35 23L34 23L34 22L36 22L36 21L37 21L37 20L35 20L35 19L37 19L37 18L39 18L39 19L38 19L38 20L39 20L39 19L40 19L40 18L39 18L39 17L38 17L38 15L37 15L37 16L35 16L35 15L34 15L34 14L33 14L33 17L32 17L32 16L31 16L31 17L28 17L28 18L29 18L29 19L26 19L26 17L24 17L24 16L22 16L22 15L24 15L24 14L22 14L22 13L23 13L23 12L24 12L24 13L25 13L25 16L27 16L27 15L26 15L26 9L25 9L25 10L23 10L23 12L22 12L22 11L21 11L21 12L19 12L19 13L18 13L18 10L19 10L19 11L20 11L20 10L19 10L19 9L18 9L18 10L16 10L16 12L17 12L17 14L16 14L16 13L15 13L15 14L14 14L14 13L12 13L12 12L14 12L14 11L15 11L15 10L14 10L14 9L13 9L13 8L18 8L18 6L17 6L17 7L16 7L16 5L15 5L15 7L14 7L14 5L13 5L13 4L12 4L12 5L11 5L11 4ZM12 5L12 7L13 7L13 5ZM0 8L0 9L2 9L2 8ZM11 10L11 11L13 11L13 10ZM29 10L29 11L31 11L31 10ZM24 11L24 12L25 12L25 11ZM33 11L33 12L34 12L34 11ZM9 12L9 13L10 13L10 14L11 14L11 15L10 15L10 17L9 17L9 18L11 18L11 20L14 20L14 26L15 26L15 29L14 29L14 31L15 31L15 29L16 29L16 28L17 28L17 29L19 29L19 26L20 26L20 27L21 27L21 25L17 25L17 24L15 24L15 23L17 23L17 22L18 22L18 24L21 24L21 23L22 23L22 22L21 22L21 21L19 21L19 20L20 20L20 19L21 19L21 17L18 17L18 16L19 16L19 14L20 14L20 15L21 15L21 14L20 14L20 13L19 13L19 14L18 14L18 16L16 16L16 15L15 15L15 16L16 16L16 17L15 17L15 19L16 19L16 20L14 20L14 19L12 19L12 15L13 15L13 14L11 14L11 12ZM40 12L40 13L39 13L39 14L41 14L41 12ZM5 14L5 16L6 16L6 17L8 17L8 16L9 16L9 15L8 15L8 14ZM29 14L29 15L30 15L30 14ZM6 15L6 16L8 16L8 15ZM40 15L40 16L41 16L41 15ZM13 16L13 18L14 18L14 16ZM16 17L16 19L17 19L17 20L18 20L18 17ZM22 17L22 19L25 19L25 18L24 18L24 17ZM31 17L31 18L30 18L30 19L32 19L32 21L30 21L30 20L29 20L29 21L30 21L30 23L31 23L31 22L32 22L32 23L33 23L33 24L34 24L34 23L33 23L33 22L34 22L34 21L33 21L33 19L35 19L35 18L37 18L37 17L34 17L34 18L33 18L33 19L32 19L32 17ZM5 20L5 21L4 21L4 22L5 22L5 21L7 21L7 22L6 22L6 23L7 23L7 24L5 24L5 25L8 25L8 26L9 26L9 25L8 25L8 24L9 24L9 23L10 23L10 24L11 24L11 25L10 25L10 26L12 26L12 27L13 27L13 26L12 26L12 25L13 25L13 23L12 23L12 24L11 24L11 23L10 23L10 20ZM22 20L22 21L23 21L23 22L26 22L26 20L25 20L25 21L24 21L24 20ZM27 20L27 21L28 21L28 20ZM8 21L8 22L9 22L9 21ZM12 21L12 22L13 22L13 21ZM15 21L15 22L16 22L16 21ZM18 21L18 22L19 22L19 23L20 23L20 22L19 22L19 21ZM32 21L32 22L33 22L33 21ZM27 22L27 23L28 23L28 24L27 24L27 25L26 25L26 26L27 26L27 27L26 27L26 28L24 28L24 27L23 27L23 26L24 26L24 25L25 25L25 24L23 24L23 25L22 25L22 29L23 29L23 30L21 30L21 31L22 31L22 33L21 33L21 34L20 34L20 35L22 35L22 36L23 36L23 35L22 35L22 33L23 33L23 34L24 34L24 33L26 33L26 32L23 32L23 31L26 31L26 30L25 30L25 29L27 29L27 27L28 27L28 28L29 28L29 27L28 27L28 24L29 24L29 22ZM30 24L30 25L29 25L29 26L30 26L30 27L31 27L31 26L32 26L32 25L31 25L31 24ZM16 25L16 27L17 27L17 28L18 28L18 26L17 26L17 25ZM30 25L30 26L31 26L31 25ZM3 27L3 30L2 30L2 29L1 29L1 30L2 30L2 31L5 31L5 29L4 29L4 28L5 28L5 27ZM6 29L6 30L7 30L7 29ZM12 30L12 31L13 31L13 30ZM12 33L12 34L11 34L11 36L12 36L12 37L13 37L13 33ZM33 33L33 36L36 36L36 33ZM34 34L34 35L35 35L35 34ZM38 34L38 35L39 35L39 36L40 36L40 37L39 37L39 38L41 38L41 36L40 36L40 35L39 35L39 34ZM29 36L29 37L30 37L30 36ZM9 37L9 39L8 39L8 41L9 41L9 39L10 39L10 41L11 41L11 38L10 38L10 37ZM15 38L15 39L14 39L14 40L13 40L13 39L12 39L12 41L16 41L16 40L15 40L15 39L16 39L16 38ZM19 38L19 39L20 39L20 38ZM40 39L40 40L41 40L41 39ZM17 40L17 41L18 41L18 40ZM22 40L22 41L23 41L23 40ZM24 40L24 41L25 41L25 40ZM0 0L0 7L7 7L7 0ZM1 1L1 6L6 6L6 1ZM2 2L2 5L5 5L5 2ZM34 0L34 7L41 7L41 0ZM35 1L35 6L40 6L40 1ZM36 2L36 5L39 5L39 2ZM0 34L0 41L7 41L7 34ZM1 35L1 40L6 40L6 35ZM2 36L2 39L5 39L5 36Z" fill="#000000"/></g></g></svg>
