<?xml version="1.0" encoding="UTF-8"?>
<svg xmlns="http://www.w3.org/2000/svg" version="1.1" width="400" height="400" viewBox="0 0 400 400"><rect x="0" y="0" width="400" height="400" fill="#ffffff"/><g transform="scale(9.756)"><g transform="translate(0,0)"><path fill-rule="evenodd" d="M10 0L10 2L9 2L9 1L8 1L8 2L9 2L9 3L8 3L8 4L9 4L9 5L8 5L8 7L9 7L9 8L6 8L6 9L7 9L7 10L6 10L6 11L7 11L7 10L8 10L8 14L5 14L5 12L4 12L4 11L3 11L3 10L5 10L5 8L0 8L0 10L1 10L1 9L2 9L2 11L3 11L3 13L1 13L1 11L0 11L0 14L2 14L2 15L1 15L1 16L0 16L0 23L1 23L1 22L2 22L2 21L3 21L3 23L2 23L2 25L1 25L1 24L0 24L0 33L1 33L1 30L2 30L2 31L3 31L3 30L2 30L2 29L3 29L3 28L4 28L4 27L7 27L7 26L5 26L5 23L4 23L4 20L3 20L3 19L5 19L5 18L6 18L6 19L7 19L7 18L6 18L6 17L7 17L7 16L10 16L10 19L11 19L11 20L6 20L6 21L7 21L7 22L6 22L6 23L8 23L8 22L9 22L9 24L8 24L8 26L9 26L9 24L10 24L10 26L12 26L12 27L11 27L11 29L10 29L10 27L9 27L9 29L8 29L8 28L6 28L6 29L7 29L7 30L6 30L6 31L5 31L5 30L4 30L4 32L3 32L3 33L4 33L4 32L5 32L5 33L8 33L8 35L10 35L10 36L8 36L8 41L9 41L9 40L10 40L10 41L11 41L11 40L10 40L10 39L11 39L11 38L9 38L9 37L10 37L10 36L11 36L11 35L10 35L10 34L9 34L9 33L10 33L10 31L11 31L11 34L12 34L12 33L13 33L13 36L14 36L14 37L15 37L15 40L13 40L13 39L12 39L12 41L15 41L15 40L16 40L16 39L19 39L19 40L20 40L20 39L21 39L21 40L22 40L22 41L23 41L23 38L24 38L24 37L25 37L25 38L26 38L26 41L32 41L32 40L34 40L34 39L35 39L35 41L36 41L36 39L37 39L37 40L38 40L38 41L39 41L39 40L40 40L40 39L39 39L39 40L38 40L38 39L37 39L37 38L36 38L36 39L35 39L35 38L34 38L34 37L37 37L37 33L38 33L38 35L39 35L39 34L41 34L41 32L37 32L37 29L39 29L39 30L38 30L38 31L39 31L39 30L41 30L41 29L39 29L39 28L37 28L37 29L32 29L32 27L34 27L34 28L36 28L36 26L37 26L37 27L39 27L39 26L37 26L37 25L40 25L40 26L41 26L41 24L40 24L40 23L39 23L39 24L37 24L37 23L38 23L38 21L40 21L40 22L41 22L41 21L40 21L40 20L41 20L41 19L40 19L40 20L38 20L38 19L36 19L36 18L37 18L37 17L33 17L33 16L37 16L37 15L38 15L38 14L37 14L37 13L39 13L39 12L40 12L40 11L39 11L39 12L38 12L38 11L37 11L37 10L38 10L38 8L37 8L37 9L36 9L36 8L35 8L35 9L34 9L34 8L33 8L33 6L32 6L32 7L31 7L31 5L33 5L33 4L30 4L30 3L29 3L29 0L28 0L28 1L27 1L27 0L23 0L23 1L25 1L25 2L24 2L24 3L25 3L25 4L26 4L26 3L25 3L25 2L28 2L28 3L29 3L29 4L28 4L28 5L26 5L26 7L27 7L27 6L28 6L28 7L29 7L29 4L30 4L30 7L31 7L31 8L25 8L25 5L24 5L24 4L23 4L23 2L21 2L21 1L22 1L22 0L21 0L21 1L20 1L20 0L19 0L19 1L18 1L18 3L16 3L16 1L17 1L17 0L16 0L16 1L14 1L14 0L13 0L13 3L10 3L10 2L11 2L11 1L12 1L12 0ZM31 0L31 1L30 1L30 2L31 2L31 3L32 3L32 2L33 2L33 1L32 1L32 0ZM19 1L19 4L16 4L16 5L19 5L19 7L20 7L20 8L19 8L19 9L13 9L13 8L15 8L15 7L16 7L16 8L18 8L18 6L17 6L17 7L16 7L16 6L15 6L15 7L14 7L14 5L15 5L15 4L14 4L14 3L15 3L15 2L14 2L14 3L13 3L13 4L14 4L14 5L13 5L13 7L12 7L12 5L9 5L9 7L10 7L10 6L11 6L11 8L10 8L10 10L9 10L9 9L8 9L8 10L9 10L9 13L10 13L10 14L9 14L9 15L10 15L10 16L11 16L11 14L13 14L13 15L12 15L12 18L11 18L11 19L13 19L13 16L14 16L14 18L17 18L17 20L18 20L18 17L24 17L24 18L19 18L19 19L20 19L20 20L19 20L19 21L18 21L18 22L17 22L17 21L16 21L16 22L17 22L17 23L16 23L16 25L15 25L15 24L14 24L14 22L15 22L15 21L14 21L14 20L15 20L15 19L14 19L14 20L11 20L11 22L10 22L10 21L9 21L9 22L10 22L10 23L11 23L11 25L12 25L12 26L13 26L13 27L12 27L12 28L13 28L13 29L11 29L11 30L14 30L14 31L12 31L12 32L14 32L14 33L15 33L15 34L16 34L16 31L17 31L17 32L18 32L18 33L17 33L17 36L16 36L16 38L19 38L19 39L20 39L20 38L19 38L19 37L17 37L17 36L20 36L20 37L22 37L22 38L23 38L23 37L22 37L22 36L21 36L21 35L20 35L20 34L18 34L18 33L19 33L19 32L20 32L20 33L21 33L21 34L22 34L22 35L23 35L23 36L24 36L24 34L25 34L25 36L27 36L27 35L26 35L26 33L27 33L27 34L29 34L29 37L26 37L26 38L29 38L29 39L27 39L27 40L31 40L31 38L30 38L30 37L32 37L32 35L31 35L31 34L32 34L32 31L33 31L33 32L35 32L35 31L36 31L36 30L31 30L31 33L27 33L27 32L30 32L30 29L29 29L29 28L31 28L31 27L32 27L32 26L33 26L33 25L35 25L35 23L34 23L34 21L35 21L35 22L36 22L36 21L37 21L37 20L35 20L35 18L34 18L34 20L33 20L33 23L32 23L32 22L31 22L31 23L30 23L30 21L32 21L32 18L33 18L33 17L32 17L32 16L33 16L33 15L34 15L34 13L35 13L35 14L36 14L36 13L37 13L37 12L36 12L36 11L35 11L35 10L36 10L36 9L35 9L35 10L34 10L34 11L35 11L35 12L34 12L34 13L33 13L33 12L31 12L31 11L32 11L32 10L33 10L33 9L32 9L32 8L31 8L31 9L25 9L25 10L23 10L23 13L25 13L25 16L26 16L26 13L27 13L27 14L28 14L28 15L27 15L27 16L30 16L30 15L32 15L32 16L31 16L31 17L27 17L27 18L26 18L26 17L24 17L24 16L23 16L23 15L24 15L24 14L21 14L21 13L22 13L22 12L21 12L21 13L20 13L20 14L19 14L19 13L17 13L17 12L19 12L19 11L20 11L20 10L21 10L21 9L24 9L24 5L23 5L23 4L22 4L22 3L21 3L21 4L20 4L20 1ZM31 1L31 2L32 2L32 1ZM19 4L19 5L20 5L20 4ZM21 4L21 6L20 6L20 7L21 7L21 8L23 8L23 5L22 5L22 4ZM21 6L21 7L22 7L22 6ZM39 8L39 10L41 10L41 9L40 9L40 8ZM19 9L19 10L20 10L20 9ZM31 9L31 10L29 10L29 11L31 11L31 10L32 10L32 9ZM11 10L11 11L10 11L10 13L13 13L13 12L11 12L11 11L13 11L13 10ZM15 10L15 11L14 11L14 12L15 12L15 13L14 13L14 14L17 14L17 13L16 13L16 12L15 12L15 11L16 11L16 10ZM17 10L17 11L18 11L18 10ZM26 10L26 12L25 12L25 11L24 11L24 12L25 12L25 13L26 13L26 12L28 12L28 13L30 13L30 14L29 14L29 15L30 15L30 14L32 14L32 15L33 15L33 13L30 13L30 12L28 12L28 10ZM6 12L6 13L7 13L7 12ZM35 12L35 13L36 13L36 12ZM3 13L3 14L4 14L4 15L5 15L5 14L4 14L4 13ZM40 13L40 14L41 14L41 13ZM18 14L18 16L17 16L17 15L16 15L16 17L18 17L18 16L19 16L19 14ZM20 14L20 16L22 16L22 15L21 15L21 14ZM2 15L2 16L3 16L3 17L1 17L1 21L2 21L2 19L3 19L3 17L4 17L4 18L5 18L5 17L6 17L6 16L7 16L7 15L6 15L6 16L5 16L5 17L4 17L4 16L3 16L3 15ZM14 15L14 16L15 16L15 15ZM39 15L39 16L38 16L38 17L39 17L39 16L40 16L40 15ZM31 17L31 18L29 18L29 19L31 19L31 18L32 18L32 17ZM40 17L40 18L41 18L41 17ZM24 18L24 19L26 19L26 18ZM27 18L27 21L26 21L26 20L25 20L25 21L24 21L24 20L22 20L22 19L21 19L21 20L22 20L22 21L21 21L21 22L20 22L20 21L19 21L19 22L18 22L18 24L17 24L17 25L18 25L18 26L20 26L20 28L22 28L22 29L19 29L19 27L18 27L18 28L17 28L17 29L16 29L16 28L15 28L15 27L16 27L16 26L15 26L15 25L14 25L14 24L13 24L13 23L12 23L12 25L14 25L14 26L15 26L15 27L14 27L14 28L15 28L15 29L14 29L14 30L17 30L17 29L19 29L19 30L18 30L18 31L19 31L19 30L20 30L20 31L21 31L21 32L22 32L22 34L24 34L24 33L26 33L26 32L23 32L23 31L22 31L22 29L23 29L23 30L24 30L24 31L25 31L25 29L27 29L27 28L28 28L28 26L27 26L27 25L29 25L29 26L30 26L30 27L31 27L31 26L32 26L32 25L33 25L33 24L29 24L29 21L30 21L30 20L29 20L29 21L28 21L28 18ZM12 21L12 22L13 22L13 21ZM19 22L19 23L20 23L20 22ZM22 22L22 24L21 24L21 25L22 25L22 24L23 24L23 25L24 25L24 26L23 26L23 27L22 27L22 26L21 26L21 27L22 27L22 28L23 28L23 27L24 27L24 28L27 28L27 26L26 26L26 25L24 25L24 24L27 24L27 22ZM3 23L3 26L4 26L4 23ZM6 24L6 25L7 25L7 24ZM18 24L18 25L19 25L19 24ZM36 24L36 25L37 25L37 24ZM30 25L30 26L31 26L31 25ZM34 26L34 27L35 27L35 26ZM1 27L1 28L3 28L3 27ZM9 29L9 30L10 30L10 29ZM7 30L7 31L6 31L6 32L8 32L8 33L9 33L9 32L8 32L8 30ZM26 30L26 31L29 31L29 30ZM33 33L33 36L36 36L36 33ZM34 34L34 35L35 35L35 34ZM14 35L14 36L15 36L15 35ZM38 36L38 37L39 37L39 36ZM12 37L12 38L13 38L13 37ZM40 37L40 38L41 38L41 37ZM17 40L17 41L18 41L18 40ZM24 40L24 41L25 41L25 40ZM0 0L0 7L7 7L7 0ZM1 1L1 6L6 6L6 1ZM2 2L2 5L5 5L5 2ZM34 0L34 7L41 7L41 0ZM35 1L35 6L40 6L40 1ZM36 2L36 5L39 5L39 2ZM0 34L0 41L7 41L7 34ZM1 35L1 40L6 40L6 35ZM2 36L2 39L5 39L5 36Z" fill="#000000"/></g></g></svg>
